<svg xmlns="http://www.w3.org/2000/svg" xmlns:xlink="http://www.w3.org/1999/xlink" width="1280" height="800" viewBox="0 0 1280 800"><defs><clipPath id="b"><rect width="1280" height="800"/></clipPath></defs><g id="a" clip-path="url(#b)"><rect width="1280" height="800" fill="#fff"/><g transform="matrix(0.921, 0.391, -0.391, 0.921, 460.02, -7.684)"><path d="M336.547,115.6C255.192,53.094,155.341,11.7,45.952.244,21.386-2.377,0,16.665,0,40.261V403.724C0,439.6,45.374,457.54,71.818,432.15L340.449,175.628C358.367,158.656,356.344,130.644,336.547,115.6Z" transform="translate(140.52 -180.233)" fill="#f8cf62"/><path d="M463.853,293.142c-11.078-94.567-50.278-186.635-117.884-264.893C330.771,10.624,302.081,9.7,284.9,25.618L20.153,270.651C-5.98,294.72,12.484,336.02,49.411,336.02l373.253.132C447.519,336.151,466.551,316.027,463.853,293.142Z" transform="matrix(0.998, -0.07, 0.07, 0.998, 483.086, -110.164)" fill="#cad639"/><path d="M437.1,453.008c81.075-99.378,134.466-221.095,149.027-354.42,3.236-29.9-21.572-55.933-52.312-55.757L60.3,44.414c-46.74.176-69.75,55.406-36.673,87.594L358.9,457.757C381.189,479.568,417.5,476.93,437.1,453.008Z" transform="translate(153.918 496.992) rotate(-14)" fill="#81b3a3"/><path d="M46.22,430.4A458.786,458.786,0,0,0,282.456,328.3c15.6-12.881,16.072-36.753,1.418-50.816L60.283,60.863C38.184,39.591,1.431,55.545,1.9,86.153L7.1,396.721C7.34,417.521,25.776,433,46.22,430.4Z" transform="matrix(0.996, -0.087, 0.087, 0.996, 21.033, 523.851)" fill="#163b8b"/></g><path d="M-128.007,381.97A304.362,304.362,0,0,0-43.646,592.629c4.081,4.3,8.282,8.487,12.611,12.525a305.741,305.741,0,0,0,95.353,60.606c50,19.954,104.336-17.352,104.336-71.188V169.345c0-54.571-55.37-91.034-105.945-70.529C-49.131,144.187-128.007,253.836-128.007,381.97Z" transform="matrix(0.966, 0.259, -0.259, 0.966, 169.17, 12.049)" fill="#e4526d"/></g></svg>